<?xml version="1.0" encoding="UTF-8"?>
<svg version="1.1" xmlns="http://www.w3.org/2000/svg" width="500" height="222">
<path d="M0 0 C0.77214844 -0.01611328 1.54429688 -0.03222656 2.33984375 -0.04882812 C8.03930687 -0.053767 8.03930687 -0.053767 10.19140625 1.65722656 C12.64570953 4.76173706 12.88219731 8.79650463 13.65625 12.59765625 C14.28410306 15.62351992 14.28410306 15.62351992 17.5 17.3125 C23.41531669 19.45067976 29.38072009 21.47224585 35.5 19.3125 C37.2836835 17.61965224 38.76593132 15.87476168 40.23828125 13.90625 C41.98981458 11.69378684 43.23090421 11.35959176 46 10.875 C51.89718992 11.61214874 57.32591416 14.90882319 61.3125 19.31640625 C64.16534454 24.11181269 60.72805386 32.05452181 59.5 37.3125 C60.06589844 37.78300781 60.63179687 38.25351562 61.21484375 38.73828125 C61.94832031 39.36089844 62.68179688 39.98351563 63.4375 40.625 C64.16839844 41.23988281 64.89929688 41.85476562 65.65234375 42.48828125 C67.5 44.3125 67.5 44.3125 68.5 47.3125 C68.17 47.9725 67.84 48.6325 67.5 49.3125 C40.24918931 50.86763845 40.24918931 50.86763845 27.81640625 43.2890625 C23.23909703 40.56100777 18.68914385 39.3344706 13.5 38.3125 C12.38625 38.085625 11.2725 37.85875 10.125 37.625 C-11.17257844 35.78900186 -29.7528832 40.92044532 -46.5 54.3125 C-47.53125 55.055 -48.5625 55.7975 -49.625 56.5625 C-63.39477858 69.73359256 -71.24353178 87.62484701 -71.90063477 106.58618164 C-72.14690208 123.96352077 -67.29491638 141.95709684 -55.5 155.1875 C-54.63375 156.04988281 -54.63375 156.04988281 -53.75 156.9296875 C-52.5 158.3125 -52.5 158.3125 -52.5 160.3125 C-51.60667969 160.72242188 -51.60667969 160.72242188 -50.6953125 161.140625 C-48.57352802 162.27325016 -47.12253164 163.42912872 -45.375 165.0625 C-33.83220686 175.09228431 -19.57763058 179.86889707 -4.5 181.3125 C-3.7575 181.3846875 -3.015 181.456875 -2.25 181.53125 C10.27414045 182.10052911 26.31878647 178.44594561 36.5 171.16796875 C41.93382362 167.99344427 48.35847338 168.89673734 54.4375 169.0625 C55.69369141 169.08054688 56.94988281 169.09859375 58.24414062 169.1171875 C61.33021916 169.16412406 64.41470781 169.22977586 67.5 169.3125 C67.5 173.3125 67.5 173.3125 65.6796875 175.13671875 C64.91914063 175.75160156 64.15859375 176.36648437 63.375 177 C60.28904847 179.76058907 60.28904847 179.76058907 59.37890625 183.5859375 C59.94426376 185.90271724 60.66694941 188.07895856 61.5 190.3125 C62.93815514 196.47602201 62.93815514 196.47602201 61.125 199.9375 C56.73369582 203.91058473 52.10818743 206.8109255 46.25 207.9375 C41.49555917 206.85694527 39.23647209 203.28355208 36.390625 199.53125 C33.84750978 197.12133942 33.84750978 197.12133942 31.53540039 197.28588867 C29.23599039 197.72344078 27.05045994 198.31475527 24.8125 199 C23.28803115 199.42155321 21.76330329 199.8421712 20.23828125 200.26171875 C19.00464844 200.60847656 17.77101563 200.95523438 16.5 201.3125 C15.84 201.3125 15.18 201.3125 14.5 201.3125 C14.40203125 202.12074219 14.3040625 202.92898437 14.203125 203.76171875 C14.05359375 204.83035156 13.9040625 205.89898437 13.75 207 C13.54117188 208.58361328 13.54117188 208.58361328 13.328125 210.19921875 C12.32928665 213.95428556 11.44527566 215.75118715 8.5 218.3125 C5.62175014 218.98379111 2.87870599 218.92170934 -0.0625 218.8125 C-0.83013672 218.81507813 -1.59777344 218.81765625 -2.38867188 218.8203125 C-7.8317496 218.72540269 -7.8317496 218.72540269 -10.421875 217.125 C-11.83401272 214.75097136 -12.50756744 212.48905993 -13.1875 209.8125 C-13.43886719 208.8534375 -13.69023438 207.894375 -13.94921875 206.90625 C-14.5 204.3125 -14.5 204.3125 -14.5 201.3125 C-15.44101563 201.11914062 -16.38203125 200.92578125 -17.3515625 200.7265625 C-18.59679687 200.46617187 -19.84203125 200.20578125 -21.125 199.9375 C-22.35476562 199.68226563 -23.58453125 199.42703125 -24.8515625 199.1640625 C-28.15820196 198.39227727 -31.30141713 197.44430625 -34.5 196.3125 C-34.76296875 196.89515625 -35.0259375 197.4778125 -35.296875 198.078125 C-37.32961732 201.85321787 -40.13168813 204.68478947 -43.5 207.3125 C-47.05566006 208.33969069 -48.73730075 207.69743598 -51.9921875 206.0546875 C-60.22502064 201.30589389 -60.22502064 201.30589389 -62.5 198.3125 C-62.64453125 196.33203125 -62.64453125 196.33203125 -62.3125 194.125 C-62.19648437 193.33867187 -62.08046875 192.55234375 -61.9609375 191.7421875 C-61.29176949 188.21487817 -60.44471225 184.77644492 -59.5 181.3125 C-60.11488281 180.78140625 -60.72976562 180.2503125 -61.36328125 179.703125 C-62.17152344 178.99671875 -62.97976562 178.2903125 -63.8125 177.5625 C-64.61300781 176.86640625 -65.41351563 176.1703125 -66.23828125 175.453125 C-68.27965601 173.52104665 -69.89892851 171.61306874 -71.5 169.3125 C-74.96941546 169.77072468 -78.17395049 170.20381683 -81.5 171.3125 C-88.60313901 171.87624119 -88.60313901 171.87624119 -91.6875 169.9375 C-98.70297209 159.77716111 -98.70297209 159.77716111 -98.28125 154.65625 C-96.89788751 150.50616252 -93.47733551 148.08408066 -90.125 145.4375 C-88.14758556 143.31917184 -88.14758556 143.31917184 -88.625 140 C-89.20253384 137.56610741 -89.84756556 135.14713312 -90.5625 132.75 C-91.47051692 129.42060461 -91.66721405 126.74038808 -91.5 123.3125 C-92.06847656 123.27511719 -92.63695313 123.23773438 -93.22265625 123.19921875 C-98.57806067 122.74324943 -102.73537576 121.84066796 -107.5 119.3125 C-109.92136226 115.68045662 -109.82929639 113.76106165 -109.875 109.4375 C-109.90335938 108.22320312 -109.93171875 107.00890625 -109.9609375 105.7578125 C-109.41774206 101.69765677 -108.45187945 100.11090219 -105.5 97.3125 C-103.31640625 96.38671875 -103.31640625 96.38671875 -101.0625 96 C-100.32128906 95.85949219 -99.58007812 95.71898438 -98.81640625 95.57421875 C-96.35852663 95.29651566 -93.97145288 95.26455294 -91.5 95.3125 C-91.46261719 94.70664063 -91.42523438 94.10078125 -91.38671875 93.4765625 C-90.8859239 87.09388306 -89.54935314 81.37033632 -87.5 75.3125 C-88.04269531 74.86519531 -88.58539063 74.41789062 -89.14453125 73.95703125 C-97.35203044 67.02132473 -97.35203044 67.02132473 -98.5 63.3125 C-97.53668375 57.68966492 -95.06571144 52.74262633 -91.5 48.3125 C-89.26218099 46.85509686 -88.06852872 46.2568031 -85.38671875 46.51953125 C-84.66097656 46.71933594 -83.93523437 46.91914062 -83.1875 47.125 C-82.00607422 47.40923828 -82.00607422 47.40923828 -80.80078125 47.69921875 C-78.81173828 48.22940508 -76.84099192 48.82736458 -74.875 49.4375 C-71.52337166 49.66780432 -71.52337166 49.66780432 -69.6875 47.73046875 C-68.46980243 46.31594507 -67.28863666 44.86921339 -66.14453125 43.39453125 C-64.20959812 40.94484156 -62.01795119 39.14373723 -59.5 37.3125 C-59.7165625 36.58804688 -59.933125 35.86359375 -60.15625 35.1171875 C-63.26433121 24.32523885 -63.26433121 24.32523885 -62.5 20.3125 C-59.18718888 15.96443541 -54.6941047 12.9937744 -49.5 11.3125 C-46.51953125 10.921875 -46.51953125 10.921875 -43.5 11.3125 C-41.2265625 13.31640625 -41.2265625 13.31640625 -39.125 15.875 C-35.66035997 19.74491932 -35.66035997 19.74491932 -30.625 20.5625 C-29.24553883 20.16084966 -27.87090644 19.74244378 -26.5 19.3125 C-25.57445313 19.22097656 -24.64890625 19.12945313 -23.6953125 19.03515625 C-20.41686535 18.57860857 -18.29704432 18.108022 -15.5 16.3125 C-13.85042234 12.7094751 -13.01966343 9.35355362 -12.28125 5.46484375 C-10.69151522 -0.94973607 -5.54460897 -0.02314111 0 0 Z " fill="#108585" transform="translate(121.5,0.6875)"/>
<path d="M0 0 C6.6 0 13.2 0 20 0 C20.99 4.62 21.98 9.24 23 14 C24.36125 14.268125 25.7225 14.53625 27.125 14.8125 C31.10424409 15.68629925 34.43227132 16.9874351 38 19 C42.95 15.535 42.95 15.535 48 12 C52.06026821 14.03013411 54.65457376 16.42395554 57.75 19.625 C58.25660156 20.140625 58.76320313 20.65625 59.28515625 21.1875 C60.52803902 22.45383339 61.76465276 23.7263144 63 25 C61.23570801 29.97209562 58.6060834 34.43438061 56 39 C50.96469037 39.1238722 45.93027303 39.21446514 40.89379883 39.2746582 C39.18172755 39.29975714 37.46976296 39.33384429 35.75805664 39.37719727 C33.29286355 39.43805739 30.82909015 39.46625432 28.36328125 39.48828125 C27.22080681 39.52699089 27.22080681 39.52699089 26.05525208 39.56648254 C21.97486462 39.56862169 20.2889425 39.25152155 17.16479492 36.53198242 C16.09322144 35.27865112 16.09322144 35.27865112 15 34 C10.16064772 32.38688257 6.36158371 32.44528071 1.625 34.375 C-1.08676342 35.73593741 -1.08676342 35.73593741 -2 38 C1.3 38 4.6 38 8 38 C12.18319812 44.62339702 12.18319812 44.62339702 11.7265625 48.0546875 C10.72456595 50.27011107 9.91363006 51.48320567 8 53 C4.65052837 53.87649725 1.45256549 54.04612206 -2 54 C1.50265849 57.39320041 4.24908004 58.72485661 9.01171875 59.1015625 C12.2380136 58.93676158 14.33610377 57.75574979 17 56 C17.52335937 55.31284912 18.04671875 54.62569824 18.5859375 53.91772461 C22.28071999 50.98259956 25.78605834 51.44547592 30.375 51.50390625 C31.29531006 51.50245102 32.21562012 51.50099579 33.16381836 51.49949646 C35.11396442 51.50115594 37.06412351 51.5127227 39.01416016 51.53344727 C41.96184797 51.56212877 44.90770457 51.55411131 47.85546875 51.54101562 C57.76090178 51.55393959 66.50371356 51.9762669 76 55 C76 61.6 76 68.2 76 75 C65.875 77.25 65.875 77.25 62 77 C61.70996094 77.97839844 61.70996094 77.97839844 61.4140625 78.9765625 C61.15367187 79.85054688 60.89328125 80.72453125 60.625 81.625 C60.36976563 82.48351562 60.11453125 83.34203125 59.8515625 84.2265625 C59 87 59 87 57.6875 89.96875 C56.66800229 93.05958559 56.66800229 93.05958559 58.3359375 95.9921875 C59.00882812 96.94351563 59.68171875 97.89484375 60.375 98.875 C61.04273438 99.84179688 61.71046875 100.80859375 62.3984375 101.8046875 C63.19121094 102.89136719 63.19121094 102.89136719 64 104 C59.88380164 108.91935902 55.59589638 113.52647956 51 118 C47.91808417 116.912265 45.70881239 115.78315816 43.0625 113.8125 C40.17155648 111.73797204 40.17155648 111.73797204 37.0625 112.0625 C33.86111339 112.9812846 33.86111339 112.9812846 30.375 114.5625 C27 116 27 116 23 116 C22.93941406 116.67546875 22.87882812 117.3509375 22.81640625 118.046875 C22.69072266 119.38492188 22.69072266 119.38492188 22.5625 120.75 C22.44068359 122.07257813 22.44068359 122.07257813 22.31640625 123.421875 C22 126 22 126 21 130 C14.4 130 7.8 130 1 130 C-2 119.375 -2 119.375 -2 116 C-3.03125 115.896875 -4.0625 115.79375 -5.125 115.6875 C-9 115 -9 115 -12.1875 113.375 C-14.77333997 111.79067546 -14.77333997 111.79067546 -16.92578125 112.25 C-19.97042183 113.35088699 -22.37085098 115.18017198 -25 117.0390625 C-27 118 -27 118 -28.88671875 117.9765625 C-32.07194489 116.50464654 -34.35885181 114.19407609 -36.8125 111.75 C-37.5849707 111.03263672 -37.5849707 111.03263672 -38.37304688 110.30078125 C-39.83203125 108.859375 -39.83203125 108.859375 -42 106 C-41.97302813 102.36419201 -40.70745682 100.18565723 -38.5 97.375 C-36.74539306 95.12053411 -35.92768252 93.78304756 -35 91 C-30.81919399 90.87596879 -26.63937498 90.78546399 -22.45727539 90.7253418 C-21.03618709 90.70026853 -19.61522687 90.66620001 -18.19458008 90.62280273 C-16.14632538 90.56182142 -14.09978117 90.53372238 -12.05078125 90.51171875 C-10.82012939 90.48553467 -9.58947754 90.45935059 -8.3215332 90.43237305 C-4.10571091 91.15282779 -2.74367725 92.81964046 0 96 C3.45465272 97.72732636 7.21576878 97.35415682 11 97 C14.5544915 95.60911202 15.71251242 94.43618806 17.8125 91.25 C19.19317311 87.47131569 19.49945097 84.99560775 19 81 C16.74665796 76.66023014 14.54633071 73.90311518 10 72 C4.77559411 71.43006481 1.44724462 72.20754408 -3 75 C-3.66 75.99 -4.32 76.98 -5 78 C-7.86466852 78.29233267 -10.50944435 78.3958072 -13.375 78.36328125 C-14.21409912 78.36377975 -15.05319824 78.36427826 -15.91772461 78.36479187 C-17.69989377 78.36244745 -19.48206599 78.35269736 -21.26416016 78.33618164 C-23.96157353 78.31283262 -26.65798167 78.31558745 -29.35546875 78.32226562 C-51.71540974 78.28459026 -51.71540974 78.28459026 -55 75 C-55.08651611 73.58429877 -55.10704904 72.164405 -55.09765625 70.74609375 C-55.09443359 69.89208984 -55.09121094 69.03808594 -55.08789062 68.15820312 C-55.07951172 67.26037109 -55.07113281 66.36253906 -55.0625 65.4375 C-55.05798828 64.53580078 -55.05347656 63.63410156 -55.04882812 62.70507812 C-55.03700225 60.46998686 -55.0205222 58.23502563 -55 56 C-50.23743683 54.32150353 -45.99607067 53.5168349 -41 53 C-40.731875 51.80375 -40.46375 50.6075 -40.1875 49.375 C-39.48022522 46.44781168 -38.73020728 44.50859184 -37.25 41.8125 C-35.72849417 39.1235325 -35.72849417 39.1235325 -36.5 36.5625 C-38.46733438 33.20163709 -40.67256126 30.12366779 -43 27 C-41.38989473 22.92623969 -38.46177729 20.23492931 -35.375 17.25 C-34.859375 16.74339844 -34.34375 16.23679687 -33.8125 15.71484375 C-32.54616661 14.47196098 -31.2736856 13.23534724 -30 12 C-26.53534855 13.23187607 -24.28929853 14.58177682 -21.5625 17 C-18.45301335 18.9895949 -17.19387173 19.03052083 -13.4765625 18.4453125 C-9.42356078 17.18750247 -6.35930107 15.62864228 -3 13 C-0.86097107 8.47656726 -0.517775 5.074195 0 0 Z " fill="#359A9A" transform="translate(114,45)"/>
<path d="M0 0 C6.27 0 12.54 0 19 0 C19.66 1.32 20.32 2.64 21 4 C21.6703125 3.35160156 22.340625 2.70320313 23.03125 2.03515625 C26.75165235 -0.51527747 29.0225741 -0.56697743 33.5 -0.5625 C35.43359375 -0.59537109 35.43359375 -0.59537109 37.40625 -0.62890625 C41.77130455 0.1349783 43.22805308 1.63634903 46 5 C46.433125 4.360625 46.86625 3.72125 47.3125 3.0625 C49 1 49 1 52 0 C54.28663379 -0.19663927 56.58079311 -0.31194569 58.875 -0.375 C60.08929688 -0.42398438 61.30359375 -0.47296875 62.5546875 -0.5234375 C65.9309004 -0.01049812 67.64242304 0.53535376 69.97473145 3.03948975 C72.47376444 7.81812047 71.59240824 13.78889246 71.48828125 19.05078125 C71.47894836 20.43367736 71.47183449 21.81659007 71.46684265 23.19950867 C71.44780948 26.82819775 71.3987432 30.45587604 71.34332275 34.08416748 C71.2920491 37.79099861 71.26931147 41.49799411 71.24414062 45.20507812 C71.19061813 52.47056488 71.1027155 59.73501167 71 67 C64.73 67 58.46 67 52 67 C51.67 50.5 51.34 34 51 17 C49.68 17.33 48.36 17.66 47 18 C46.67 34.17 46.34 50.34 46 67 C39.73 67 33.46 67 27 67 C26.67 50.83 26.34 34.66 26 18 C24.68 17.34 23.36 16.68 22 16 C21.67 32.83 21.34 49.66 21 67 C14.73 67 8.46 67 2 67 C1.97494385 65.29013916 1.9498877 63.58027832 1.92407227 61.81860352 C1.83982546 56.13885317 1.75157628 50.4591742 1.66066074 44.77952671 C1.60573863 41.33945689 1.55237169 37.89937826 1.50268555 34.45922852 C1.44535758 30.49487454 1.38103748 26.53064814 1.31640625 22.56640625 C1.29969376 21.34417862 1.28298126 20.12195099 1.26576233 18.86268616 C1.24581711 17.70216232 1.22587189 16.54163849 1.20532227 15.34594727 C1.18977798 14.335569 1.1742337 13.32519073 1.15821838 12.28419495 C0.96030648 8.17606759 0.45419293 4.08773633 0 0 Z " fill="#389B9B" transform="translate(233,113)"/>
<path d="M0 0 C0.66914429 -0.00287018 1.33828857 -0.00574036 2.02770996 -0.00869751 C3.43628795 -0.01073042 4.84489468 -0.00525476 6.25341797 0.00732422 C8.40006085 0.02339118 10.54482139 0.00745158 12.69140625 -0.01171875 C14.06510829 -0.00973618 15.43880917 -0.00589221 16.8125 0 C18.05322266 0.00338379 19.29394531 0.00676758 20.57226562 0.01025391 C24.22588674 0.43565355 26.06965684 1.07418335 28.90625 3.3984375 C30.78972229 7.15434381 31.15117117 10.20934475 31.13330078 14.38208008 C31.13314972 15.56292679 31.13299866 16.7437735 31.13284302 17.96040344 C31.12252045 19.22514999 31.11219788 20.48989655 31.1015625 21.79296875 C31.0987326 23.09546066 31.09590271 24.39795258 31.09298706 25.73991394 C31.08537697 29.19066134 31.06575135 32.64123848 31.0435791 36.09191895 C31.02306388 39.6178965 31.01397324 43.14390175 31.00390625 46.66992188 C30.9825027 53.57950378 30.94734218 60.48894492 30.90625 67.3984375 C24.63625 67.3984375 18.36625 67.3984375 11.90625 67.3984375 C11.90625 62.7784375 11.90625 58.1584375 11.90625 53.3984375 C9.59625 53.3984375 7.28625 53.3984375 4.90625 53.3984375 C4.90625 58.0184375 4.90625 62.6384375 4.90625 67.3984375 C-1.36375 67.3984375 -7.63375 67.3984375 -14.09375 67.3984375 C-14.14335663 59.73039686 -14.17956761 52.0624506 -14.20361328 44.39428711 C-14.21364248 41.78815075 -14.22726911 39.18202557 -14.24462891 36.57592773 C-14.2690126 32.82012161 -14.28026424 29.06446487 -14.2890625 25.30859375 C-14.29938507 24.15198746 -14.30970764 22.99538116 -14.32034302 21.8037262 C-14.32214978 8.64175534 -14.32214978 8.64175534 -12.09375 3.3984375 C-8.42723794 -0.02599286 -4.87658013 0.01329976 0 0 Z M6.90625 15.3984375 C5.18418812 18.38970069 4.66445077 20.50529463 4.7109375 23.9453125 C4.71738281 24.78964844 4.72382813 25.63398437 4.73046875 26.50390625 C4.74722656 27.37660156 4.76398438 28.24929687 4.78125 29.1484375 C4.79027344 30.03660156 4.79929687 30.92476562 4.80859375 31.83984375 C4.83210423 34.02631808 4.86496501 36.21223844 4.90625 38.3984375 C7.21625 38.3984375 9.52625 38.3984375 11.90625 38.3984375 C11.96414006 34.94017408 11.99980821 31.48203457 12.03125 28.0234375 C12.04800781 27.03859375 12.06476563 26.05375 12.08203125 25.0390625 C12.08847656 24.09804687 12.09492188 23.15703125 12.1015625 22.1875 C12.11203613 21.31818848 12.12250977 20.44887695 12.13330078 19.55322266 C12.11220109 17.18497811 12.11220109 17.18497811 9.90625 15.3984375 C8.91625 15.3984375 7.92625 15.3984375 6.90625 15.3984375 Z " fill="#379B9B" transform="translate(405.09375,41.6015625)"/>
<path d="M0 0 C9.4978125 -0.1546875 9.4978125 -0.1546875 19.1875 -0.3125 C21.1780542 -0.35802002 23.1686084 -0.40354004 25.21948242 -0.45043945 C26.80646074 -0.4650496 28.39345786 -0.47778903 29.98046875 -0.48828125 C31.20521912 -0.526651 31.20521912 -0.526651 32.45471191 -0.5657959 C36.81965903 -0.56912945 38.46943125 -0.4189877 42.01367188 2.37988281 C45.38051586 6.82100494 45.15548304 11.00102061 45.1875 16.4375 C45.20167969 17.52933594 45.21585937 18.62117188 45.23046875 19.74609375 C44.93318233 23.94337487 44.16057712 27.5492786 41.5 30.875 C40 32 40 32 38 32 C38 32.66 38 33.32 38 34 C38.78375 34.185625 39.5675 34.37125 40.375 34.5625 C43 36 43 36 44.125 38.8125 C45.50522555 44.25019713 45.46607583 49.85859943 45.625 55.4375 C45.68300781 57.1071582 45.68300781 57.1071582 45.7421875 58.81054688 C45.83590635 61.54010852 45.91901731 64.27003081 46 67 C39.73 67 33.46 67 27 67 C25.82620859 64.65241719 25.84591545 63.15169581 25.7890625 60.53515625 C25.76070313 59.65279297 25.73234375 58.77042969 25.703125 57.86132812 C25.65115626 55.99954791 25.60685077 54.13753758 25.5703125 52.27539062 C25.539375 51.39173828 25.5084375 50.50808594 25.4765625 49.59765625 C25.45674316 48.78820557 25.43692383 47.97875488 25.41650391 47.14477539 C24.90255041 44.498186 24.11680473 43.62828735 22 42 C20.515 41.505 20.515 41.505 19 41 C19 49.58 19 58.16 19 67 C12.73 67 6.46 67 0 67 C0 44.89 0 22.78 0 0 Z M19 15 C19 18.63 19 22.26 19 26 C20.98 25.67 22.96 25.34 25 25 C26.18845297 20.36976382 26.18845297 20.36976382 24.8125 16.0625 C22.77502919 14.66285367 22.77502919 14.66285367 19 15 Z " fill="#379B9B" transform="translate(441,113)"/>
<path d="M0 0 C2.09171409 -0.00969958 4.1824424 -0.04073325 6.27392578 -0.07226562 C7.61115956 -0.07879702 8.94840033 -0.08404696 10.28564453 -0.08789062 C12.10298096 -0.10190918 12.10298096 -0.10190918 13.95703125 -0.11621094 C17.56919308 0.27705948 19.39226966 0.99939848 22.23095703 3.24023438 C24.38292703 6.56663367 24.47444744 9.28951723 24.45800781 13.20214844 C24.45785675 14.40309143 24.45770569 15.60403442 24.45755005 16.84136963 C24.44722748 18.13315125 24.43690491 19.42493286 24.42626953 20.75585938 C24.42253737 22.09535511 24.41969135 23.43485358 24.41769409 24.77435303 C24.4100736 28.29251703 24.3904389 31.81051477 24.36828613 35.32861328 C24.34779346 38.9215266 24.33868507 42.5144669 24.32861328 46.10742188 C24.30719136 53.15176705 24.27202224 60.19597234 24.23095703 67.24023438 C17.96095703 67.24023438 11.69095703 67.24023438 5.23095703 67.24023438 C5.23095703 62.62023437 5.23095703 58.00023437 5.23095703 53.24023438 C3.25095703 53.24023438 1.27095703 53.24023438 -0.76904297 53.24023438 C-0.76904297 57.86023438 -0.76904297 62.48023438 -0.76904297 67.24023438 C-7.03904297 67.24023438 -13.30904297 67.24023438 -19.76904297 67.24023438 C-19.85950457 59.37320628 -19.93285093 51.50646368 -19.97629166 43.63905811 C-19.9971439 39.98565622 -20.02541705 36.3326294 -20.07080078 32.67944336 C-20.11434483 29.15216588 -20.13819786 25.62524857 -20.14855194 22.09772301 C-20.15951171 20.10073838 -20.19072445 18.10389814 -20.222229 16.10713196 C-20.22253113 14.88624374 -20.22283325 13.66535553 -20.22314453 12.4074707 C-20.23202698 11.33491531 -20.24090942 10.26235992 -20.25006104 9.15730286 C-19.64717337 5.50117284 -18.35628922 3.84896483 -15.76904297 1.24023438 C-10.69705349 -0.45042879 -5.30820488 0.01491418 0 0 Z M0.23095703 15.24023438 C-1.00825508 16.25660414 -1.00825508 16.25660414 -0.88256836 18.37329102 C-0.87733154 19.28973389 -0.87209473 20.20617676 -0.86669922 21.15039062 C-0.86347656 22.13974609 -0.86025391 23.12910156 -0.85693359 24.1484375 C-0.84855469 25.18935547 -0.84017578 26.23027344 -0.83154297 27.30273438 C-0.82703125 28.34751953 -0.82251953 29.39230469 -0.81787109 30.46875 C-0.80604209 33.05930097 -0.78955986 35.64973996 -0.76904297 38.24023438 C1.21095703 38.24023438 3.19095703 38.24023438 5.23095703 38.24023438 C5.2599025 34.78191852 5.27773703 31.32363365 5.29345703 27.86523438 C5.30183594 26.88039063 5.31021484 25.89554688 5.31884766 24.88085938 C5.32368164 23.46933594 5.32368164 23.46933594 5.32861328 22.02929688 C5.3338501 21.15998535 5.33908691 20.29067383 5.34448242 19.39501953 C5.37218054 17.18973443 5.37218054 17.18973443 4.23095703 15.24023438 C2.91095703 15.24023438 1.59095703 15.24023438 0.23095703 15.24023438 Z " fill="#359A9A" transform="translate(254.76904296875,41.759765625)"/>
<path d="M0 0 C6.27 0 12.54 0 19 0 C19.33 16.83 19.66 33.66 20 51 C21.32 51.33 22.64 51.66 24 52 C24.33 34.84 24.66 17.68 25 0 C31.27 0 37.54 0 44 0 C44.06784997 7.73663688 44.12285883 15.47316255 44.15543652 23.21002483 C44.17107439 26.80280829 44.19227779 30.39537715 44.22631836 33.98803711 C44.25897965 37.45694391 44.27686714 40.92564464 44.28463173 44.39469337 C44.29285018 46.35838752 44.31625892 48.32199908 44.33988953 50.28556824 C44.34011612 51.4864357 44.34034271 52.68730316 44.34057617 53.92456055 C44.34723801 54.97935104 44.35389984 56.03414154 44.36076355 57.12089539 C43.94126748 60.46871993 43.00110523 62.30343663 41 65 C37.27080446 67.48613036 35.30028444 67.25789522 30.84765625 67.265625 C29.8028434 67.26849518 29.8028434 67.26849518 28.73692322 67.27142334 C27.26512287 67.272783 25.79331044 67.26910182 24.3215332 67.26074219 C22.07410573 67.25005519 19.82748049 67.260636 17.58007812 67.2734375 C16.14843574 67.27211555 14.71679386 67.26955242 13.28515625 67.265625 C11.98457275 67.26336914 10.68398926 67.26111328 9.34399414 67.25878906 C6.20850542 67.01613607 4.50419158 66.84985756 2 65 C-0.1572132 61.6385579 -0.24334957 58.89059567 -0.22705078 54.94628906 C-0.22689972 53.72532532 -0.22674866 52.50436157 -0.22659302 51.24639893 C-0.21627045 49.93274353 -0.20594788 48.61908813 -0.1953125 47.265625 C-0.19158042 45.90370898 -0.18873437 44.54179027 -0.18673706 43.17987061 C-0.17911594 39.60252414 -0.15948069 36.02534115 -0.1373291 32.44805908 C-0.11683778 28.7948223 -0.10772833 25.14155899 -0.09765625 21.48828125 C-0.07623319 14.32543783 -0.04106364 7.16276268 0 0 Z " fill="#389B9B" transform="translate(285,42)"/>
<path d="M0 0 C1.03318359 -0.02900391 2.06636719 -0.05800781 3.13085938 -0.08789062 C9.31695041 -0.13947445 13.01277221 0.12057197 17.6875 4.3125 C20.73466812 8.51549051 21.79822208 12.26960423 21.84863281 17.40332031 C21.85824036 18.19804749 21.8678479 18.99277466 21.87774658 19.81158447 C21.88199646 20.66266785 21.88624634 21.51375122 21.890625 22.390625 C21.89632507 23.27602966 21.90202515 24.16143433 21.90789795 25.07366943 C21.91733391 26.94639903 21.92387635 28.81914513 21.92773438 30.69189453 C21.93741796 33.53838565 21.96844543 36.38414763 22 39.23046875 C22.00653294 41.05468324 22.01178227 42.87890286 22.015625 44.703125 C22.0279718 45.54611145 22.0403186 46.3890979 22.05303955 47.25762939 C22.02854161 53.84790521 20.99278613 59.50293253 16.6875 64.75 C11.86918675 68.51430722 5.69478712 67.57349746 -0.125 67.625 C-1.20587891 67.65400391 -2.28675781 67.68300781 -3.40039062 67.71289062 C-9.67351838 67.76295242 -13.6114096 67.64656174 -18.3125 63.3125 C-22.04157843 57.14023226 -22.4781887 51.79105217 -22.515625 44.70703125 C-22.52132507 43.86839035 -22.52702515 43.02974945 -22.53289795 42.16569519 C-22.54233289 40.39131932 -22.54887594 38.61692605 -22.55273438 36.8425293 C-22.56240347 34.15186215 -22.59342557 31.46197123 -22.625 28.77148438 C-22.63153452 27.04167117 -22.63678322 25.31185253 -22.640625 23.58203125 C-22.6529718 22.78795364 -22.6653186 21.99387604 -22.67803955 21.17573547 C-22.65159746 14.41592126 -21.73431308 7.73431308 -16.8125 2.8125 C-11.42426771 -0.42043938 -6.1051823 0.05649459 0 0 Z M-2.3125 15.3125 C-3.69671065 16.46918501 -3.69671065 16.46918501 -3.42602539 19.63891602 C-3.42586629 21.11475556 -3.42017314 22.59060069 -3.41015625 24.06640625 C-3.4087413 24.84185287 -3.40732635 25.6172995 -3.40586853 26.41624451 C-3.40025345 28.90253494 -3.38769846 31.3887366 -3.375 33.875 C-3.36998694 35.55663933 -3.3654237 37.23828006 -3.36132812 38.91992188 C-3.35027913 43.05081566 -3.33300445 47.18164276 -3.3125 51.3125 C-1.9925 51.9725 -0.6725 52.6325 0.6875 53.3125 C3.06273595 51.37659791 3.06273595 51.37659791 2.91455078 47.87255859 C2.91423369 46.40198021 2.90290987 44.93137858 2.8828125 43.4609375 C2.8799826 42.68690582 2.87715271 41.91287415 2.87423706 41.11538696 C2.86302754 38.63926843 2.83792203 36.1635095 2.8125 33.6875 C2.80247118 32.01042188 2.79334516 30.33333811 2.78515625 28.65625 C2.76308574 24.54152777 2.72855102 20.42707489 2.6875 16.3125 C1.03135343 15.93031233 -0.63707024 15.59854898 -2.3125 15.3125 Z " fill="#399C9C" transform="translate(414.3125,112.6875)"/>
<path d="M0 0 C1.02802734 -0.01160156 2.05605469 -0.02320312 3.11523438 -0.03515625 C12.34440254 0.00073164 12.34440254 0.00073164 16.4375 3.375 C16.994375 3.808125 17.55125 4.24125 18.125 4.6875 C26.25136764 15.13568696 23.28490272 38.29326664 22.09375 50.6484375 C21.37268966 55.90016031 20.72017052 60.08118151 17.4375 64.375 C11.98426366 68.36879649 5.91666802 67.85553795 -0.5625 67.8125 C-1.62984375 67.83248047 -2.6971875 67.85246094 -3.796875 67.87304688 C-10.00793459 67.86918428 -13.89452198 67.62633205 -18.5625 63.375 C-22.4702967 57.17642593 -22.71883157 50.82610056 -22.73046875 43.66796875 C-22.73379715 42.94313797 -22.73712555 42.21830719 -22.74055481 41.47151184 C-22.74559399 39.94447458 -22.74796407 38.41742642 -22.74780273 36.89038086 C-22.74998374 34.57972639 -22.76815615 32.26955427 -22.78710938 29.95898438 C-22.86412206 9.81268393 -22.86412206 9.81268393 -17.5625 3.375 C-11.97050384 -0.39570772 -6.4941448 -0.07356489 0 0 Z M-2.5625 15.375 C-4.05357263 18.35714526 -3.72528536 21.41329801 -3.73046875 24.68359375 C-3.73379715 25.40611832 -3.73712555 26.12864288 -3.74055481 26.87306213 C-3.74561988 28.4021033 -3.74796326 29.93115553 -3.74780273 31.46020508 C-3.74998816 33.7998272 -3.7681448 36.13897703 -3.78710938 38.47851562 C-3.79004359 39.96354005 -3.7920282 41.44856672 -3.79296875 42.93359375 C-3.80015427 43.6336705 -3.80733978 44.33374725 -3.81474304 45.05503845 C-3.79747262 48.72623268 -3.6574823 50.23252656 -1.5625 53.375 C0.42241642 53.10823796 0.42241642 53.10823796 2.4375 52.375 C4.17825002 47.15274993 3.62341808 41.53676587 3.62280273 36.06884766 C3.62499205 33.88294081 3.64316857 31.69753653 3.66210938 29.51171875 C3.66504301 28.12239756 3.66702801 26.73307397 3.66796875 25.34375 C3.67207764 24.07982422 3.67618652 22.81589844 3.68041992 21.51367188 C3.6821677 18.21242369 3.6821677 18.21242369 1.4375 15.375 C0.1175 15.375 -1.2025 15.375 -2.5625 15.375 Z " fill="#389B9B" transform="translate(331.5625,112.625)"/>
<path d="M0 0 C11.55 0 23.1 0 35 0 C35 4.95 35 9.9 35 15 C32.36 15 29.72 15 27 15 C27 32.16 27 49.32 27 67 C20.73 67 14.46 67 8 67 C8 49.84 8 32.68 8 15 C5.36 15 2.72 15 0 15 C0 10.05 0 5.1 0 0 Z " fill="#379B9B" transform="translate(355,113)"/>
<path d="M0 0 C7.26 0 14.52 0 22 0 C21.84660156 1.55203125 21.69320313 3.1040625 21.53515625 4.703125 C20.75742672 14.03587936 20.6407038 23.39101366 20.4375 32.75 C20.39420837 34.62240345 20.3505911 36.4947994 20.30664062 38.3671875 C20.2006745 42.91138063 20.09910884 47.45565235 20 52 C25.94 51.505 25.94 51.505 32 51 C31.51771891 56.94813341 30.91607362 61.25177915 29 67 C19.76 67 10.52 67 1 67 C0.67 44.89 0.34 22.78 0 0 Z " fill="#399C9C" transform="translate(333,42)"/>
<path d="M0 0 C6.27 0 12.54 0 19 0 C19 22.11 19 44.22 19 67 C12.73 67 6.46 67 0 67 C0 44.89 0 22.78 0 0 Z " fill="#389B9B" transform="translate(367,42)"/>
<path d="M0 0 C1.32 0.33 2.64 0.66 4 1 C4 33.67 4 66.34 4 100 C2.68 100 1.36 100 0 100 C0 67 0 34 0 0 Z " fill="#46A0A0" transform="translate(213,62)"/>
<path d="M0 0 C1.32 0 2.64 0 4 0 C4 21.12 4 42.24 4 64 C2.68 64 1.36 64 0 64 C0 42.88 0 21.76 0 0 Z " fill="#49A1A1" transform="translate(205,81)"/>
<path d="M0 0 C3.40033206 -0.3504159 6.61140931 -0.51438701 10 0 C12.6875 2.6875 12.6875 2.6875 14 6 C13.82485843 9.67797295 12.68798229 11.62403541 11 15 C7.37 15 3.74 15 0 15 C-3.17098446 9.97927461 -3.17098446 9.97927461 -4 7 C-3.13355366 4.10282005 -1.84925575 2.46567433 0 0 Z " fill="#419F9F" transform="translate(115,122)"/>
<path d="M0 0 C0.66 0.33 1.32 0.66 2 1 C0.7934375 2.0828125 0.7934375 2.0828125 -0.4375 3.1875 C-3.02292072 6.02515689 -3.68042813 7.27166147 -4 11 C-4.33 11 -4.66 11 -5 11 C-5.3125 8.3125 -5.3125 8.3125 -5 5 C-2.5 2.125 -2.5 2.125 0 0 Z " fill="#7CBCBC" transform="translate(64,16)"/>
</svg>
